<?xml version="1.0" encoding="UTF-8"?>
<svg version="1.1" xmlns="http://www.w3.org/2000/svg" width="120" height="120">
<path d="M0 0 C0.78767258 -0.00671722 1.57534515 -0.01343445 2.3868866 -0.02035522 C4.98349365 -0.03930833 7.5798418 -0.04325818 10.17651367 -0.04541016 C11.98866379 -0.05184044 13.80081286 -0.05856898 15.61296082 -0.06558228 C19.4099671 -0.07754867 23.20688245 -0.0812638 27.00390625 -0.08007812 C31.85603772 -0.07987509 36.70758251 -0.10716446 41.55957508 -0.14162254 C45.3026545 -0.16392287 49.04559349 -0.16791469 52.78873253 -0.16685867 C54.57680976 -0.1692104 56.36489112 -0.17800971 58.1529026 -0.19352341 C60.66093963 -0.21324534 63.16772154 -0.20732155 65.67578125 -0.1953125 C66.40592438 -0.20655151 67.1360675 -0.21779053 67.88833618 -0.22937012 C74.65934872 -0.14749144 79.74057318 2.25950552 84.78198242 6.72802734 C90.80224958 13.58444271 93.33389861 18.00776463 93.32250977 27.25854492 C93.32922699 28.0462175 93.33594421 28.83389008 93.34286499 29.64543152 C93.3618181 32.24203857 93.36576795 34.83838673 93.36791992 37.43505859 C93.37435021 39.24720871 93.38107874 41.05935779 93.38809204 42.87150574 C93.40005843 46.66851202 93.40377357 50.46542737 93.40258789 54.26245117 C93.40238485 59.11458264 93.42967423 63.96612743 93.46413231 68.81812 C93.48643263 72.56119942 93.49042446 76.30413841 93.48936844 80.04727745 C93.49172017 81.83535469 93.50051948 83.62343604 93.51603317 85.41144753 C93.5357551 87.91948456 93.52983132 90.42626646 93.51782227 92.93432617 C93.52906128 93.6644693 93.54030029 94.39461243 93.55187988 95.1468811 C93.47000121 101.91789364 91.06300425 106.9991181 86.59448242 112.04052734 C79.73806705 118.0607945 75.31474513 120.59244353 66.06396484 120.58105469 C65.27629227 120.58777191 64.48861969 120.59448914 63.67707825 120.60140991 C61.0804712 120.62036302 58.48412304 120.62431287 55.88745117 120.62646484 C54.07530106 120.63289513 52.26315198 120.63962366 50.45100403 120.64663696 C46.65399775 120.65860335 42.8570824 120.66231849 39.06005859 120.66113281 C34.20792712 120.66092977 29.35638234 120.68821915 24.50438976 120.72267723 C20.76131034 120.74497756 17.01837135 120.74896938 13.27523232 120.74791336 C11.48715508 120.75026509 9.69907372 120.7590644 7.91106224 120.77457809 C5.40302521 120.79430002 2.8962433 120.78837624 0.38818359 120.77636719 C-0.34195953 120.7876062 -1.07210266 120.79884521 -1.82437134 120.8104248 C-8.59538388 120.72854613 -13.67660834 118.32154917 -18.71801758 113.85302734 C-24.73828473 106.99661197 -27.26993377 102.57329006 -27.25854492 93.32250977 C-27.26526215 92.53483719 -27.27197937 91.74716461 -27.27890015 90.93562317 C-27.29785325 88.33901612 -27.3018031 85.74266796 -27.30395508 83.14599609 C-27.31038536 81.33384598 -27.3171139 79.5216969 -27.3241272 77.70954895 C-27.33609359 73.91254267 -27.33980873 70.11562732 -27.33862305 66.31860352 C-27.33842001 61.46647205 -27.36570938 56.61492726 -27.40016747 51.76293468 C-27.42246779 48.01985526 -27.42645961 44.27691627 -27.42540359 40.53377724 C-27.42775532 38.7457 -27.43655463 36.95761864 -27.45206833 35.16960716 C-27.47179026 32.66157013 -27.46586647 30.15478823 -27.45385742 27.64672852 C-27.46509644 26.91658539 -27.47633545 26.18644226 -27.48791504 25.43417358 C-27.40603636 18.66316104 -24.99903941 13.58193659 -20.53051758 8.54052734 C-13.67410221 2.52026019 -9.25078029 -0.01138885 0 0 Z " fill="#296A50" transform="translate(26.968017578125,-0.29052734375)"/>
<path d="M0 0 C3.04770341 2.65384635 4.72995373 5.80638772 6.6875 9.3125 C7.03127686 9.92262939 7.37505371 10.53275879 7.72924805 11.16137695 C9.19437167 13.76201296 10.64789419 16.36907877 12.10253906 18.97558594 C13.16854548 20.88182262 14.24037047 22.7847025 15.3125 24.6875 C15.94800781 25.82574219 16.58351562 26.96398437 17.23828125 28.13671875 C18.68619054 30.48997265 19.93578992 32.20254938 22 34 C22.40424194 32.93217285 22.40424194 32.93217285 22.81665039 31.84277344 C24.93233893 26.76023221 27.74572228 22.04518872 30.4375 17.25 C31.02337891 16.18394531 31.60925781 15.11789063 32.21289062 14.01953125 C32.78072266 13.00761719 33.34855469 11.99570312 33.93359375 10.953125 C34.44978271 10.02661133 34.96597168 9.10009766 35.49780273 8.14550781 C37 6 37 6 40 5 C43.203125 10.60546875 46.40625 16.2109375 49.609375 21.81640625 C50.13108276 22.72927399 50.13108276 22.72927399 50.66333008 23.6605835 C51.36787478 24.89369971 52.0721384 26.12697656 52.77612305 27.3604126 C54.61627862 30.58364126 56.46189469 33.80356129 58.31640625 37.01855469 C58.6880188 37.66436493 59.05963135 38.31017517 59.44250488 38.97555542 C60.15584634 40.21494521 60.87087349 41.45336666 61.58776855 42.69070435 C64 46.88759794 64 46.88759794 64 48 C33.97 48 3.94 48 -27 48 C-24.50421626 41.76054065 -21.26847749 36.04684259 -18 30.1875 C-17.66596161 29.58650482 -17.33192322 28.98550964 -16.98776245 28.36630249 C-11.62074776 18.71984426 -6.02256467 9.25349348 0 0 Z " fill="#F5F2EA" transform="translate(41,32)"/>
<path d="M0 0 C2.125 1.625 2.125 1.625 3 4 C2.93480059 7.71636626 2.79890124 10.04746391 0.375 12.9375 C-3.02619871 14.4590889 -5.31282731 14.51749792 -9 14 C-12 11.9375 -12 11.9375 -14 9 C-14.06516574 5.22038718 -13.78258108 3.04344143 -11.5 0 C-7.57649762 -1.56940095 -4.02982755 -1.10458411 0 0 Z " fill="#E1A13D" transform="translate(97,26)"/>
</svg>
